
<svg width="100" height="100" viewBox="0 0 100 100" fill="none" xmlns="http://www.w3.org/2000/svg">
  <path d="M50 87.5C70.7107 87.5 87.5 70.7107 87.5 50C87.5 29.2893 70.7107 12.5 50 12.5C29.2893 12.5 12.5 29.2893 12.5 50C12.5 70.7107 29.2893 87.5 50 87.5Z" stroke="#0077B6" stroke-width="4" stroke-linecap="round" stroke-linejoin="round"/>
  <path d="M27.5 55C35.5 68.3333 64.5 68.3333 72.5 55" stroke="#0077B6" stroke-width="4" stroke-linecap="round" stroke-linejoin="round"/>
  <path d="M72.5 45C64.5 31.6667 35.5 31.6667 27.5 45" stroke="#0077B6" stroke-width="4" stroke-linecap="round" stroke-linejoin="round"/>
  <path d="M50 60C53.4518 60 56.25 57.2018 56.25 53.75C56.25 50.2982 53.4518 47.5 50 47.5C46.5482 47.5 43.75 50.2982 43.75 53.75C43.75 57.2018 46.5482 60 50 60Z" fill="#0077B6"/>
</svg>
